<?xml version="1.0" standalone="no"?>
<!DOCTYPE svg PUBLIC "-//W3C//DTD SVG 20010904//EN"
 "http://www.w3.org/TR/2001/REC-SVG-20010904/DTD/svg10.dtd">
<svg version="1.0" xmlns="http://www.w3.org/2000/svg"
 width="512.000000pt" height="512.000000pt" viewBox="0 0 512.000000 512.000000"
 preserveAspectRatio="xMidYMid meet">
<metadata>
Created by potrace 1.11, written by Peter Selinger 2001-2013
</metadata>
<g transform="translate(0.000000,512.000000) scale(0.100000,-0.100000)"
fill="#000000" stroke="none">
<path d="M2236 4998 c3 -5 10 -6 15 -3 13 9 11 12 -6 12 -8 0 -12 -4 -9 -9z"/>
<path d="M3479 4953 c-13 -16 -12 -17 4 -4 16 13 21 21 13 21 -2 0 -10 -8 -17
-17z"/>
<path d="M1077 4902 l-857 -2 0 -2335 0 -2335 2335 0 2335 0 0 2335 0 2335
-87 0 c-49 0 -713 1 -1478 3 -765 1 -1776 1 -2248 -1z m3613 -1666 l0 -1464
-69 -4 c-215 -12 -354 -227 -281 -435 42 -121 150 -201 282 -211 l68 -5 0
-343 0 -344 -2135 0 -2135 0 0 365 0 365 109 0 109 0 11 33 c5 17 32 120 60
227 136 528 148 566 243 755 91 181 213 353 350 493 171 174 331 240 354 146
10 -40 12 -32 -232 -913 -98 -355 -114 -429 -115 -520 -1 -99 16 -149 65 -196
48 -47 100 -65 182 -65 214 1 436 158 624 442 l57 88 7 -63 c23 -210 118 -368
259 -433 55 -26 73 -29 162 -29 95 0 104 2 177 37 98 47 164 96 260 194 138
140 254 312 382 564 37 74 66 126 62 115 -63 -223 -139 -555 -143 -625 -8
-136 23 -213 107 -260 40 -22 57 -25 145 -25 85 0 109 4 163 27 186 78 362
245 491 466 74 127 53 148 -37 35 -112 -143 -191 -213 -258 -232 -45 -12 -60
-6 -73 29 -14 42 -38 -63 399 1725 21 88 71 291 110 450 101 411 111 457 105
463 -3 3 -62 -6 -133 -21 -70 -14 -259 -54 -421 -87 -162 -33 -296 -62 -297
-63 -8 -8 23 -32 137 -108 l126 -84 -75 -305 c-41 -168 -76 -307 -77 -308 -2
-2 -33 8 -68 22 -100 40 -160 49 -277 43 -586 -32 -1165 -679 -1225 -1368 -6
-63 -12 -82 -43 -129 -51 -75 -199 -223 -247 -248 -61 -30 -115 -12 -115 39 0
34 30 158 113 469 137 511 216 813 222 848 25 152 -1 270 -76 342 -40 38 -115
62 -194 62 -309 0 -667 -348 -968 -942 -38 -74 -66 -126 -63 -115 3 11 109
434 235 941 127 506 237 941 245 967 13 44 13 47 -4 47 -10 0 -139 -25 -286
-55 -148 -31 -329 -68 -402 -82 -73 -15 -140 -32 -148 -38 -13 -9 8 -27 115
-98 72 -48 131 -92 131 -97 0 -5 -74 -308 -164 -672 -90 -365 -166 -672 -169
-683 -2 -11 -5 510 -6 1158 l-1 1177 2135 0 2135 -1 0 -1463z m-1035 -145 c59
-33 95 -112 95 -207 0 -102 -99 -449 -196 -689 -189 -467 -474 -790 -666 -755
-96 18 -133 106 -132 310 0 74 6 169 13 210 33 199 114 448 204 626 87 173
242 368 352 444 120 82 250 106 330 61z"/>
</g>
</svg>
