<?xml version="1.0" standalone="no"?>
<!DOCTYPE svg PUBLIC "-//W3C//DTD SVG 20010904//EN"
 "http://www.w3.org/TR/2001/REC-SVG-20010904/DTD/svg10.dtd">
<svg version="1.0" xmlns="http://www.w3.org/2000/svg"
 width="512.000000pt" height="512.000000pt" viewBox="0 0 512.000000 512.000000"
 preserveAspectRatio="xMidYMid meet">
<metadata>
Created by potrace 1.11, written by Peter Selinger 2001-2013
</metadata>
<g transform="translate(0.000000,512.000000) scale(0.100000,-0.100000)"
fill="#000000" stroke="none">
<path d="M220 2565 l0 -2335 2335 0 2335 0 0 2335 0 2335 -2335 0 -2335 0 0
-2335z m4470 671 l0 -1463 -67 -5 c-123 -9 -212 -69 -265 -176 -29 -58 -33
-76 -33 -147 0 -131 54 -225 164 -284 45 -24 79 -34 131 -38 l70 -6 0 -343 0
-344 -2135 0 -2135 0 0 365 0 365 110 0 109 0 10 38 c6 20 48 183 94 362 110
421 150 529 277 745 208 352 548 642 624 533 31 -44 37 -17 -164 -741 -156
-565 -170 -626 -170 -730 0 -168 100 -257 275 -244 216 16 447 195 618 480
l34 55 12 -89 c35 -268 176 -430 385 -446 148 -11 282 53 447 217 158 157 267
313 401 580 37 74 68 131 68 127 0 -5 -27 -110 -59 -235 -76 -289 -95 -390
-88 -470 10 -130 83 -208 206 -219 215 -20 457 135 642 411 79 118 112 183 97
192 -6 4 -20 -5 -32 -22 -101 -139 -233 -266 -297 -285 -44 -14 -76 0 -85 37
-8 31 -11 15 341 1458 156 643 283 1171 281 1174 -2 2 -192 -35 -421 -82 -229
-47 -418 -86 -421 -86 -2 0 -4 -4 -4 -10 0 -5 59 -49 130 -97 72 -48 129 -91
127 -97 -2 -6 -37 -146 -77 -312 l-73 -301 -66 28 c-299 125 -705 -4 -1026
-326 -138 -138 -225 -261 -314 -440 -99 -199 -147 -365 -167 -570 -6 -65 -10
-75 -60 -142 -71 -93 -188 -203 -242 -227 -34 -16 -47 -17 -67 -8 -14 7 -28
19 -32 29 -12 30 14 141 173 733 142 530 157 595 162 687 7 156 -32 244 -132
295 -56 29 -171 35 -253 14 -276 -70 -579 -394 -834 -889 -49 -95 -89 -168
-89 -164 0 5 111 447 246 984 135 536 243 977 241 980 -6 5 -832 -163 -848
-172 -5 -4 49 -47 120 -96 83 -57 131 -96 131 -107 -1 -9 -77 -321 -169 -692
l-169 -675 -1 1178 -1 1177 2135 0 2135 0 0 -1464z m-1078 -126 c77 -22 124
-85 138 -189 6 -46 2 -80 -25 -196 -165 -705 -528 -1284 -806 -1287 -125 -1
-178 115 -166 363 29 576 391 1222 732 1305 64 16 82 16 127 4z"/>
</g>
</svg>
